<svg xmlns="http://www.w3.org/2000/svg" width="40.99" height="40.784" viewBox="0 0 40.99 40.784">
  <defs>
    <style>
      .cls-1 {
        fill: #fff;
      }
    </style>
  </defs>
  <g id="edit_1_" data-name="edit (1)" transform="translate(0 -0.261)">
    <path id="Path_2024" data-name="Path 2024" class="cls-1" d="M37.832,60.794a1.021,1.021,0,0,0-1.021,1.021v9.064a3.066,3.066,0,0,1-3.063,3.063H5.1a3.066,3.066,0,0,1-3.063-3.063v-26.6A3.066,3.066,0,0,1,5.1,41.214h9.064a1.021,1.021,0,1,0,0-2.042H5.1a5.11,5.11,0,0,0-5.1,5.1v26.6a5.11,5.11,0,0,0,5.1,5.1H33.749a5.11,5.11,0,0,0,5.1-5.1V61.815A1.021,1.021,0,0,0,37.832,60.794Zm0,0" transform="translate(0 -34.939)"/>
    <path id="Path_2025" data-name="Path 2025" class="cls-1" d="M135.594,1.606a4.594,4.594,0,0,0-6.5,0L110.884,19.819a1.021,1.021,0,0,0-.262.449l-2.4,8.647a1.021,1.021,0,0,0,1.256,1.257l8.647-2.4a1.021,1.021,0,0,0,.449-.262L136.792,9.3a4.6,4.6,0,0,0,0-6.5ZM113.108,20.483,128.014,5.576l4.807,4.807L117.915,25.29Zm-.96,1.927,3.841,3.841-5.312,1.472Zm23.2-14.552L134.265,8.94l-4.808-4.808,1.083-1.083a2.552,2.552,0,0,1,3.609,0l1.2,1.2A2.556,2.556,0,0,1,135.348,7.857Zm0,0" transform="translate(-97.145 0)"/>
  </g>
</svg>
