<svg xmlns="http://www.w3.org/2000/svg" width="40.218" height="37.765" viewBox="0 0 40.218 37.765">
  <defs>
    <style>
      .cls-1 {
        fill: #fff;
        stroke: #fff;
      }
    </style>
  </defs>
  <g id="browser" transform="translate(0.5 0.5)">
    <path id="Path_5" data-name="Path 5" class="cls-1" d="M69.567,215.25H43.524A3.528,3.528,0,0,1,40,211.727V193.189a1.226,1.226,0,0,1,2.451,0v18.538a1.074,1.074,0,0,0,1.072,1.072H69.567a1.074,1.074,0,0,0,1.072-1.072V193.189a1.226,1.226,0,0,1,2.451,0v18.538A3.528,3.528,0,0,1,69.567,215.25Z" transform="translate(-36.936 -178.486)"/>
    <path id="Path_6" data-name="Path 6" class="cls-1" d="M37.993,35.009a1.221,1.221,0,0,1-.867-.359L21.884,19.408a3.221,3.221,0,0,0-4.55,0L2.092,34.65A1.226,1.226,0,1,1,.359,32.917L15.6,17.675a5.675,5.675,0,0,1,8.016,0L38.86,32.917a1.226,1.226,0,0,1-.867,2.092Z" transform="translate(0 -16.017)"/>
    <path id="Path_7" data-name="Path 7" class="cls-1" d="M187.03,303.916h-9.8A1.226,1.226,0,0,1,176,302.69V291.813a3.834,3.834,0,0,1,3.83-3.83h4.6a3.834,3.834,0,0,1,3.83,3.83V302.69A1.226,1.226,0,0,1,187.03,303.916Zm-8.579-2.451H185.8v-9.651a1.38,1.38,0,0,0-1.379-1.379h-4.6a1.38,1.38,0,0,0-1.379,1.379Z" transform="translate(-162.519 -267.151)"/>
  </g>
</svg>
