<svg xmlns="http://www.w3.org/2000/svg" width="34.92" height="27.437" viewBox="0 0 34.92 27.437">
  <defs>
    <style>
      .cls-1 {
        fill: #454545;
      }
    </style>
  </defs>
  <g id="black-back-closed-envelope-shape" transform="translate(0 -59.013)">
    <g id="Group_2" data-name="Group 2" transform="translate(0 59.013)">
      <path id="Path_4" data-name="Path 4" class="cls-1" d="M47.654,334.3a2.965,2.965,0,0,0,2.042-.778l-9.887-9.99-.684.5q-1.11.826-1.8,1.289a11.064,11.064,0,0,1-1.84.945,5.562,5.562,0,0,1-2.142.482H33.3a5.56,5.56,0,0,1-2.142-.482,11.029,11.029,0,0,1-1.84-.945q-.692-.462-1.8-1.289c-.206-.153-.435-.32-.682-.5l-9.889,9.993a2.966,2.966,0,0,0,2.042.778Z" transform="translate(-15.861 -306.859)"/>
      <path id="Path_5" data-name="Path 5" class="cls-1" d="M1.987,200.267A10.431,10.431,0,0,1,0,198.555v15.2l8.8-8.8Q6.163,203.1,1.987,200.267Z" transform="translate(0 -189.889)"/>
      <path id="Path_6" data-name="Path 6" class="cls-1" d="M420.143,200.267q-4.02,2.721-6.834,4.686l8.8,8.8v-15.2A10.858,10.858,0,0,1,420.143,200.267Z" transform="translate(-387.19 -189.889)"/>
      <path id="Path_7" data-name="Path 7" class="cls-1" d="M31.808,59.013H3.124A2.771,2.771,0,0,0,.815,60.036a4,4,0,0,0-.809,2.558A4.623,4.623,0,0,0,1.078,65.28a9.713,9.713,0,0,0,2.28,2.272q.662.473,3.995,2.8c1.2.839,2.242,1.571,3.139,2.2.764.537,1.423,1,1.967,1.389l.291.209.537.391q.633.462,1.052.748t1.013.639a5.886,5.886,0,0,0,1.121.531,3.074,3.074,0,0,0,.974.177h.039a3.075,3.075,0,0,0,.974-.177,5.873,5.873,0,0,0,1.121-.531q.594-.354,1.014-.639t1.052-.748l.537-.391.291-.21,1.972-1.384,7.148-5.011a9.315,9.315,0,0,0,2.377-2.42,5.24,5.24,0,0,0,.954-2.971A3.033,3.033,0,0,0,34,59.938,3,3,0,0,0,31.808,59.013Z" transform="translate(-0.006 -59.013)"/>
    </g>
  </g>
</svg>
