<svg xmlns="http://www.w3.org/2000/svg" width="27.439" height="27.44" viewBox="0 0 27.439 27.44">
  <defs>
    <style>
      .cls-1 {
        fill: #454545;
      }
    </style>
  </defs>
  <g id="telephone" transform="translate(-51.006 1)">
    <g id="Group_4" data-name="Group 4" transform="translate(51.006 -1)">
      <path id="Path_7" data-name="Path 7" class="cls-1" d="M20.867,61.655a1.923,1.923,0,0,0-2.906,0c-.679.674-1.359,1.348-2.027,2.033a.4.4,0,0,1-.56.1c-.44-.24-.908-.434-1.33-.7a21.079,21.079,0,0,1-5.082-4.625A12.04,12.04,0,0,1,7.14,55.551a.418.418,0,0,1,.1-.537c.679-.657,1.342-1.33,2.01-2a1.93,1.93,0,0,0-.006-2.975c-.531-.537-1.062-1.062-1.593-1.6-.548-.548-1.091-1.1-1.644-1.644A1.935,1.935,0,0,0,3.1,46.8c-.685.674-1.342,1.365-2.038,2.027A3.309,3.309,0,0,0,.026,51.057a9.459,9.459,0,0,0,.731,4.071,24.739,24.739,0,0,0,4.391,7.314,27.172,27.172,0,0,0,9,7.04,13.015,13.015,0,0,0,4.985,1.45,3.653,3.653,0,0,0,3.135-1.193c.582-.651,1.239-1.245,1.856-1.867a1.943,1.943,0,0,0,.011-2.958Q22.506,63.279,20.867,61.655Z" transform="translate(-0.006 -43.503)"/>
      <path id="Path_8" data-name="Path 8" class="cls-1" d="M244.044,104.12l2.107-.36a9.458,9.458,0,0,0-8-7.76l-.3,2.118a7.309,7.309,0,0,1,6.19,6Z" transform="translate(-224.273 -90.518)"/>
      <path id="Path_9" data-name="Path 9" class="cls-1" d="M251.958,4.442A15.536,15.536,0,0,0,243.051,0l-.3,2.118a13.556,13.556,0,0,1,11.471,11.117l2.107-.36A15.65,15.65,0,0,0,251.958,4.442Z" transform="translate(-228.893)"/>
    </g>
  </g>
</svg>
