<svg xmlns="http://www.w3.org/2000/svg" width="25.508" height="23.017" viewBox="0 0 25.508 23.017">
  <defs>
    <style>
      .cls-1 {
        fill: #454545;
      }
    </style>
  </defs>
  <g id="calendar_1_" data-name="calendar (1)" transform="translate(0 -25)">
    <path id="Path_2048" data-name="Path 2048" class="cls-1" d="M99.342,249H97.747a.747.747,0,0,0,0,1.495h1.594a.747.747,0,0,0,0-1.495Z" transform="translate(-92.167 -212.84)"/>
    <path id="Path_2049" data-name="Path 2049" class="cls-1" d="M99.342,313H97.747a.747.747,0,0,0,0,1.495h1.594a.747.747,0,0,0,0-1.495Z" transform="translate(-92.167 -273.652)"/>
    <path id="Path_2050" data-name="Path 2050" class="cls-1" d="M99.342,377H97.747a.747.747,0,0,0,0,1.495h1.594a.747.747,0,0,0,0-1.495Z" transform="translate(-92.167 -334.463)"/>
    <path id="Path_2051" data-name="Path 2051" class="cls-1" d="M227.342,249h-1.594a.747.747,0,0,0,0,1.495h1.594a.747.747,0,0,0,0-1.495Z" transform="translate(-213.79 -212.84)"/>
    <path id="Path_2052" data-name="Path 2052" class="cls-1" d="M227.342,313h-1.594a.747.747,0,0,0,0,1.495h1.594a.747.747,0,0,0,0-1.495Z" transform="translate(-213.79 -273.652)"/>
    <path id="Path_2053" data-name="Path 2053" class="cls-1" d="M227.342,377h-1.594a.747.747,0,0,0,0,1.495h1.594a.747.747,0,0,0,0-1.495Z" transform="translate(-213.79 -334.463)"/>
    <path id="Path_2054" data-name="Path 2054" class="cls-1" d="M355.342,249h-1.594a.747.747,0,0,0,0,1.495h1.594a.747.747,0,0,0,0-1.495Z" transform="translate(-335.413 -212.84)"/>
    <path id="Path_2055" data-name="Path 2055" class="cls-1" d="M355.342,313h-1.594a.747.747,0,0,0,0,1.495h1.594a.747.747,0,0,0,0-1.495Z" transform="translate(-335.413 -273.652)"/>
    <path id="Path_2056" data-name="Path 2056" class="cls-1" d="M355.342,377h-1.594a.747.747,0,0,0,0,1.495h1.594a.747.747,0,0,0,0-1.495Z" transform="translate(-335.413 -334.463)"/>
    <path id="Path_2057" data-name="Path 2057" class="cls-1" d="M23.266,26.993H21.473V25.747a.747.747,0,0,0-1.495,0v1.246H13.5V25.747a.747.747,0,1,0-1.495,0v1.246H5.53V25.747a.747.747,0,1,0-1.495,0v1.246H2.242A2.244,2.244,0,0,0,0,29.235v16.54a2.244,2.244,0,0,0,2.242,2.242H23.266a2.244,2.244,0,0,0,2.242-2.242V29.235A2.244,2.244,0,0,0,23.266,26.993ZM1.495,29.235a.748.748,0,0,1,.747-.747H4.035v1.246a.747.747,0,0,0,1.495,0V28.487h6.477v1.246a.747.747,0,0,0,1.495,0V28.487h6.477v1.246a.747.747,0,0,0,1.495,0V28.487h1.794a.748.748,0,0,1,.747.747v2.939H1.495ZM23.266,46.522H2.242a.748.748,0,0,1-.747-.747V33.669H24.014V45.775A.748.748,0,0,1,23.266,46.522Z"/>
  </g>
</svg>
