<svg xmlns="http://www.w3.org/2000/svg" width="39.802" height="36.908" viewBox="0 0 39.802 36.908">
  <defs>
    <style>
      .cls-1 {
        fill: #fff;
        stroke: #fff;
      }
    </style>
  </defs>
  <g id="news" transform="translate(0.5 0.5)">
    <path id="Path_8" data-name="Path 8" class="cls-1" d="M36.843,0H8.454A1.961,1.961,0,0,0,6.5,1.959V4.932H1.959A1.961,1.961,0,0,0,0,6.89v25.2a3.821,3.821,0,0,0,3.789,3.815H23.923a.568.568,0,1,0,0-1.137H6.531a3.8,3.8,0,0,0,1.1-2.679V18.8a.568.568,0,0,0-1.137,0V32.092a2.683,2.683,0,0,1-2.665,2.679H3.816a2.683,2.683,0,0,1-2.68-2.679V6.89a.823.823,0,0,1,.822-.822H6.5v10.61a.568.568,0,1,0,1.137,0V1.959a.823.823,0,0,1,.821-.822H36.843a.823.823,0,0,1,.822.822V32.092a2.683,2.683,0,0,1-2.68,2.679H26.045a.568.568,0,0,0,0,1.137h8.941A3.821,3.821,0,0,0,38.8,32.092V1.959A1.961,1.961,0,0,0,36.843,0Zm0,0"/>
    <path id="Path_9" data-name="Path 9" class="cls-1" d="M147.919,171.392h7.8a1.346,1.346,0,0,0,1.345-1.345v-7.8a1.346,1.346,0,0,0-1.345-1.345h-7.8a1.346,1.346,0,0,0-1.345,1.345v7.8A1.346,1.346,0,0,0,147.919,171.392Zm-.208-9.14a.208.208,0,0,1,.208-.208h7.8a.208.208,0,0,1,.208.208v7.8a.209.209,0,0,1-.208.208h-7.8a.208.208,0,0,1-.208-.208Zm0,0" transform="translate(-135.466 -148.712)"/>
    <path id="Path_10" data-name="Path 10" class="cls-1" d="M305.26,162.043h10.549a.568.568,0,0,0,0-1.137H305.26a.568.568,0,0,0,0,1.137Zm0,0" transform="translate(-281.6 -148.712)"/>
    <path id="Path_11" data-name="Path 11" class="cls-1" d="M305.26,223.723h10.549a.568.568,0,0,0,0-1.137H305.26a.568.568,0,1,0,0,1.137Zm0,0" transform="translate(-281.6 -205.717)"/>
    <path id="Path_12" data-name="Path 12" class="cls-1" d="M305.26,285.4h10.549a.568.568,0,0,0,0-1.137H305.26a.568.568,0,1,0,0,1.137Zm0,0" transform="translate(-281.6 -262.719)"/>
    <path id="Path_13" data-name="Path 13" class="cls-1" d="M147.143,347.074h22.532a.568.568,0,0,0,0-1.137H147.143a.568.568,0,0,0,0,1.137Zm0,0" transform="translate(-135.466 -319.721)"/>
    <path id="Path_14" data-name="Path 14" class="cls-1" d="M147.143,408.754h22.532a.568.568,0,0,0,0-1.137H147.143a.568.568,0,0,0,0,1.137Zm0,0" transform="translate(-135.466 -376.726)"/>
    <path id="Path_15" data-name="Path 15" class="cls-1" d="M146.766,44.655V38.649a.306.306,0,0,1,.176-.282.868.868,0,0,1,.426-.1.9.9,0,0,1,.509.12,1.5,1.5,0,0,1,.389.518l1.786,3.452V38.64a.3.3,0,0,1,.176-.278,1.024,1.024,0,0,1,.851,0,.3.3,0,0,1,.176.278v6.015a.309.309,0,0,1-.181.278.839.839,0,0,1-.421.1.722.722,0,0,1-.694-.38l-1.99-3.72v3.72a.309.309,0,0,1-.18.278.931.931,0,0,1-.847,0A.309.309,0,0,1,146.766,44.655Zm0,0" transform="translate(-135.643 -35.369)"/>
    <path id="Path_16" data-name="Path 16" class="cls-1" d="M220.645,44.655V38.649a.315.315,0,0,1,.158-.278.666.666,0,0,1,.37-.1h3.295a.312.312,0,0,1,.282.157.672.672,0,0,1,.1.361.684.684,0,0,1-.1.38.315.315,0,0,1-.278.157h-2.619v1.851h1.407a.323.323,0,0,1,.278.144.569.569,0,0,1,.1.338.557.557,0,0,1-.1.319.319.319,0,0,1-.282.143h-1.407v1.86h2.619a.316.316,0,0,1,.278.157.685.685,0,0,1,.1.38.672.672,0,0,1-.1.361.312.312,0,0,1-.282.157h-3.295a.666.666,0,0,1-.37-.1A.315.315,0,0,1,220.645,44.655Zm0,0" transform="translate(-203.923 -35.369)"/>
    <path id="Path_17" data-name="Path 17" class="cls-1" d="M284.023,38.751a.405.405,0,0,1,.25-.338,1.027,1.027,0,0,1,.518-.144q.334,0,.4.241l1.462,5.016.787-3.221q.083-.333.592-.333t.583.333l.787,3.221,1.462-5.016q.065-.241.4-.241a1.027,1.027,0,0,1,.518.144.405.405,0,0,1,.25.338.354.354,0,0,1-.018.111l-1.832,5.821q-.139.408-.787.407a1.141,1.141,0,0,1-.5-.107.45.45,0,0,1-.268-.3l-.592-2.5-.6,2.5a.451.451,0,0,1-.268.3,1.141,1.141,0,0,1-.5.107,1.162,1.162,0,0,1-.509-.107.48.48,0,0,1-.278-.3l-1.832-5.821A.347.347,0,0,1,284.023,38.751Zm0,0" transform="translate(-262.499 -35.369)"/>
    <path id="Path_18" data-name="Path 18" class="cls-1" d="M393.68,43.4a.721.721,0,0,1,.162-.43.457.457,0,0,1,.366-.217.474.474,0,0,1,.273.115,3.148,3.148,0,0,1,.3.255,1.358,1.358,0,0,0,.412.255,1.482,1.482,0,0,0,.592.115,1.276,1.276,0,0,0,.74-.2.682.682,0,0,0,.3-.6.807.807,0,0,0-.162-.5,1.288,1.288,0,0,0-.426-.361q-.263-.143-.578-.278t-.634-.3a3.692,3.692,0,0,1-.583-.375,1.5,1.5,0,0,1-.426-.555,1.849,1.849,0,0,1-.162-.791,1.868,1.868,0,0,1,.2-.878,1.513,1.513,0,0,1,.532-.592,2.489,2.489,0,0,1,.713-.31,3.19,3.19,0,0,1,.805-.1,4.145,4.145,0,0,1,.509.033,4.707,4.707,0,0,1,.569.109,1.2,1.2,0,0,1,.49.237.487.487,0,0,1,.19.38.842.842,0,0,1-.129.426.394.394,0,0,1-.352.22,1.742,1.742,0,0,1-.454-.176,1.9,1.9,0,0,0-.824-.176,1.342,1.342,0,0,0-.773.19.621.621,0,0,0-.051.99,1.741,1.741,0,0,0,.551.324q.328.125.713.315a6.093,6.093,0,0,1,.713.412,1.729,1.729,0,0,1,.551.643,2.086,2.086,0,0,1,.222.986,1.818,1.818,0,0,1-.606,1.465,2.381,2.381,0,0,1-1.6.516,2.982,2.982,0,0,1-1.508-.361Q393.679,43.83,393.68,43.4Zm0,0" transform="translate(-363.845 -34.802)"/>
  </g>
</svg>
