<svg id="register_2_" data-name="register (2)" xmlns="http://www.w3.org/2000/svg" width="35.909" height="47.879" viewBox="0 0 35.909 47.879">
  <defs>
    <style>
      .cls-1 {
        fill: #fff;
      }
    </style>
  </defs>
  <path id="Path_2026" data-name="Path 2026" class="cls-1" d="M30.922,44.894H4.987A4.993,4.993,0,0,1,0,39.907V7.987A4.993,4.993,0,0,1,4.987,3h3.99a1,1,0,0,1,0,1.995H4.987A3,3,0,0,0,1.995,7.987V39.907A3,3,0,0,0,4.987,42.9H30.922a3,3,0,0,0,2.992-2.992V7.987a3,3,0,0,0-2.992-2.992h-3.99a1,1,0,1,1,0-1.995h3.99a4.993,4.993,0,0,1,4.987,4.987V39.907A4.993,4.993,0,0,1,30.922,44.894Z" transform="translate(0 2.985)"/>
  <path id="Path_2027" data-name="Path 2027" class="cls-1" d="M20.957,11.97H6.992A3,3,0,0,1,4,8.977V4.987a1,1,0,0,1,1-1h4.09a4.989,4.989,0,0,1,9.775,0h4.09a1,1,0,0,1,1,1v3.99A3,3,0,0,1,20.957,11.97ZM5.995,5.985V8.977a1,1,0,0,0,1,1H20.957a1,1,0,0,0,1-1V5.985h-3.99a1,1,0,0,1-1-1,2.992,2.992,0,0,0-5.985,0,1,1,0,0,1-1,1Z" transform="translate(3.98)"/>
  <path id="Path_2029" data-name="Path 2029" class="cls-1" d="M25.942,10.995H4A1,1,0,1,1,4,9H25.942a1,1,0,0,1,0,1.995Z" transform="translate(2.985 8.955)"/>
  <path id="Path_2030" data-name="Path 2030" class="cls-1" d="M25.942,13.995H4A1,1,0,1,1,4,12H25.942a1,1,0,0,1,0,1.995Z" transform="translate(2.985 11.939)"/>
  <path id="Path_2031" data-name="Path 2031" class="cls-1" d="M25.942,16.995H4A1,1,0,0,1,4,15H25.942a1,1,0,0,1,0,1.995Z" transform="translate(2.985 14.924)"/>
  <path id="Path_2032" data-name="Path 2032" class="cls-1" d="M25.942,19.995H4A1,1,0,1,1,4,18H25.942a1,1,0,0,1,0,1.995Z" transform="translate(2.985 17.909)"/>
</svg>
