<svg xmlns="http://www.w3.org/2000/svg" width="30.654" height="45.414" viewBox="0 0 30.654 45.414">
  <defs>
    <style>
      .cls-1 {
        fill: #fff;
      }
    </style>
  </defs>
  <path id="person" class="cls-1" d="M100.842,32.374a3.144,3.144,0,0,1-2.705-1.519.757.757,0,1,0-1.293.787,4.672,4.672,0,0,0,1.583,1.577l-.784,3.56L95.751,34.6a.758.758,0,1,0-1.1-1.039l-1.331,1.53-3.352-3.725a4.623,4.623,0,0,0,.508-1.776,10.134,10.134,0,0,0,12.978-9.713V13.624a.757.757,0,0,0-1.514,0V19.88a8.61,8.61,0,1,1-17.219,0V13.457a4.274,4.274,0,0,0,3.974-3.363,25.892,25.892,0,0,0,10.391,3.845.757.757,0,0,0,.21-1.5A24.392,24.392,0,0,1,88.561,8.181a.758.758,0,0,0-1.194.623,3.443,3.443,0,0,1-1.431,2.753,3.115,3.115,0,0,1-1.968.365.757.757,0,0,0-.759.669c-.008.073-.005-.176-.005,6.057a1.563,1.563,0,0,1-.852-1.385V8.042a1.8,1.8,0,0,1,1.8-1.8.757.757,0,0,0,.7-.476,6.736,6.736,0,0,1,6.285-4.255h6.491A6.776,6.776,0,0,1,104.4,8.282v8.981a.757.757,0,0,0,1.514,0V8.282A8.292,8.292,0,0,0,97.628,0H91.137a8.24,8.24,0,0,0-7.5,4.77,3.317,3.317,0,0,0-2.8,3.272v9.221a3.088,3.088,0,0,0,2.373,2.992,10.139,10.139,0,0,0,5.764,8.765v.2a3.157,3.157,0,0,1-3.163,3.155A7.808,7.808,0,0,0,78,40.186v4.471a.757.757,0,0,0,1.514,0V40.186a6.3,6.3,0,0,1,6.3-6.3,4.724,4.724,0,0,0,.989-.105l1.056,4.793a.757.757,0,0,0,1.311.333l1.491-1.717-.921,7.371a.757.757,0,0,0,1.5.188L92.3,36.232c.048.053.469.525.523.573a.757.757,0,0,0,1.066-.067l.454-.522,1.067,8.534a.757.757,0,0,0,1.5-.188L96,37.192l1.491,1.717a.757.757,0,0,0,1.311-.333l1.056-4.793a4.753,4.753,0,0,0,.989.105,6.3,6.3,0,0,1,6.3,6.3v4.471a.757.757,0,1,0,1.514,0V40.186a7.808,7.808,0,0,0-7.812-7.812ZM89.012,36.78l-.785-3.561a4.7,4.7,0,0,0,.809-.619l1.835,2.039Z" transform="translate(-78)"/>
</svg>
