<svg xmlns="http://www.w3.org/2000/svg" width="44.94" height="42.718" viewBox="0 0 44.94 42.718">
  <defs>
    <style>
      .cls-1 {
        fill: #fff;
        stroke: #fff;
      }
    </style>
  </defs>
  <g id="contact" transform="translate(0.523 0.5)">
    <g id="Group_10" data-name="Group 10" transform="translate(0 0)">
      <g id="Group_9" data-name="Group 9" transform="translate(0 0)">
        <path id="Path_19" data-name="Path 19" class="cls-1" d="M42.051,12.813H11.375A1.869,1.869,0,0,0,9.508,14.68v8.461l-1.4-2.1a2.169,2.169,0,0,0-2.928-.659L2.291,22.113A4.234,4.234,0,0,0,.356,24.622C-.7,28.456.085,35.06,9.779,44.756c7.709,7.7,13.457,9.775,17.419,9.775a10.228,10.228,0,0,0,2.716-.354,4.242,4.242,0,0,0,2.51-1.932l1.733-2.889a2.169,2.169,0,0,0-.659-2.925l-6.911-4.607a2.181,2.181,0,0,0-2.92.474l-2.012,2.587a.7.7,0,0,1-.9.19l-.383-.211a23.016,23.016,0,0,1-6-4.709c-.343-.343-.653-.663-.944-.97H42.051a1.865,1.865,0,0,0,1.867-1.858V14.68A1.869,1.869,0,0,0,42.051,12.813ZM19.676,46.149l.372.2a2.157,2.157,0,0,0,2.764-.57L24.823,43.2a.712.712,0,0,1,.952-.155l6.911,4.607a.707.707,0,0,1,.214.952L31.167,51.49a2.782,2.782,0,0,1-1.641,1.274c-3.461.952-9.518.146-18.71-9.047S.821,28.467,1.771,25.01a2.782,2.782,0,0,1,1.273-1.641l2.889-1.734a.708.708,0,0,1,.952.214l4.609,6.911a.711.711,0,0,1-.155.952L8.751,31.725a2.156,2.156,0,0,0-.57,2.763l.2.372a24.271,24.271,0,0,0,4.959,6.33A24.319,24.319,0,0,0,19.676,46.149Zm22.778-8.823a.4.4,0,0,1-.4.4H12.116A18.463,18.463,0,0,1,9.673,34.16l-.211-.384a.7.7,0,0,1,.189-.895l2.587-2.013a2.18,2.18,0,0,0,.474-2.92l-1.74-2.611V14.68a.4.4,0,0,1,.4-.4H42.051a.4.4,0,0,1,.4.4V37.326Z" transform="translate(-0.001 -12.813)"/>
        <path id="Path_20" data-name="Path 20" class="cls-1" d="M175.117,50.737l-12.236,9.28a.988.988,0,0,1-1.161,0l-12.232-9.28A.732.732,0,0,0,148.6,51.9l12.233,9.279a2.464,2.464,0,0,0,2.928,0L176,51.9a.732.732,0,0,0-.884-1.167Z" transform="translate(-135.589 -47.347)"/>
        <path id="Path_21" data-name="Path 21" class="cls-1" d="M156.506,172.615l-7.5,8.031a.732.732,0,0,0,1.071,1l7.5-8.035a.732.732,0,0,0-1.071-1Z" transform="translate(-136.043 -158.718)"/>
        <path id="Path_22" data-name="Path 22" class="cls-1" d="M371.219,172.311a.732.732,0,1,0-1.071,1l7.5,8.031a.732.732,0,0,0,1.071-1Z" transform="translate(-338.211 -158.414)"/>
      </g>
    </g>
  </g>
</svg>
