<svg xmlns="http://www.w3.org/2000/svg" width="58.203" height="60.658" viewBox="0 0 58.203 60.658">
  <defs>
    <style>
      .cls-1 {
        fill: #ff0029;
      }
    </style>
  </defs>
  <g id="Group_1887" data-name="Group 1887" transform="translate(-1137.542 -484.674)">
    <g id="discount" transform="translate(1137.542 484.674)">
      <g id="Group_1211" data-name="Group 1211" transform="translate(0 0)">
        <g id="Group_1210" data-name="Group 1210">
          <path id="Path_2011" data-name="Path 2011" class="cls-1" d="M65.756,31.113a1.778,1.778,0,0,1,0-1.571l2.262-4.628a5.266,5.266,0,0,0-2.272-6.992L61.2,15.506a1.778,1.778,0,0,1-.924-1.271l-.89-5.074A5.266,5.266,0,0,0,53.434,4.84l-5.1.721a1.778,1.778,0,0,1-1.494-.486l-3.7-3.582a5.265,5.265,0,0,0-7.352,0l-3.7,3.582a1.778,1.778,0,0,1-1.494.486l-5.1-.721a5.265,5.265,0,0,0-5.948,4.322l-.89,5.074a1.778,1.778,0,0,1-.923,1.271l-4.55,2.414A5.266,5.266,0,0,0,10.9,24.914l2.262,4.628a1.778,1.778,0,0,1,0,1.571L10.9,35.741a5.266,5.266,0,0,0,2.272,6.992l4.55,2.414a1.778,1.778,0,0,1,.924,1.271l.89,5.074a5.262,5.262,0,0,0,5.191,4.375,5.41,5.41,0,0,0,.757-.054l5.1-.721a1.777,1.777,0,0,1,1.494.486l3.7,3.582a5.265,5.265,0,0,0,7.352,0l3.7-3.582a1.779,1.779,0,0,1,1.494-.486l5.1.721a5.265,5.265,0,0,0,5.948-4.322l.89-5.074a1.778,1.778,0,0,1,.923-1.271l4.55-2.414a5.266,5.266,0,0,0,2.272-6.993ZM32.463,14.584A6.414,6.414,0,1,1,26.05,21,6.421,6.421,0,0,1,32.463,14.584ZM29.153,43.108a1.749,1.749,0,0,1-2.474-2.474L49.768,17.546a1.749,1.749,0,1,1,2.474,2.474Zm17.3,2.962a6.414,6.414,0,1,1,6.414-6.414A6.421,6.421,0,0,1,46.457,46.07Z" transform="translate(-10.359 0.002)"/>
        </g>
      </g>
      <g id="Group_1213" data-name="Group 1213" transform="translate(33.183 36.743)">
        <g id="Group_1212" data-name="Group 1212">
          <path id="Path_2012" data-name="Path 2012" class="cls-1" d="M293.367,310.141a2.915,2.915,0,1,0,2.915,2.915A2.919,2.919,0,0,0,293.367,310.141Z" transform="translate(-290.452 -310.141)"/>
        </g>
      </g>
      <g id="Group_1215" data-name="Group 1215" transform="translate(19.189 18.084)">
        <g id="Group_1214" data-name="Group 1214">
          <path id="Path_2013" data-name="Path 2013" class="cls-1" d="M175.248,152.646a2.915,2.915,0,1,0,2.915,2.915A2.919,2.919,0,0,0,175.248,152.646Z" transform="translate(-172.333 -152.646)"/>
        </g>
      </g>
    </g>
    <ellipse id="Ellipse_26" data-name="Ellipse 26" class="cls-1" cx="18.5" cy="19" rx="18.5" ry="19" transform="translate(1148 496)"/>
  </g>
</svg>
