<svg xmlns="http://www.w3.org/2000/svg" width="27" height="21.214" viewBox="0 0 27 21.214">
  <defs>
    <style>
      .cls-1 {
        fill: #fff;
      }
    </style>
  </defs>
  <g id="black-back-closed-envelope-shape" transform="translate(0 -59.013)">
    <g id="Group_2" data-name="Group 2" transform="translate(0 59.013)">
      <path id="Path_4" data-name="Path 4" class="cls-1" d="M40.689,331.853a2.293,2.293,0,0,0,1.579-.6l-7.645-7.724-.529.384q-.858.639-1.393,1a8.554,8.554,0,0,1-1.423.73,4.3,4.3,0,0,1-1.656.373h-.03a4.3,4.3,0,0,1-1.656-.373,8.527,8.527,0,0,1-1.423-.73q-.535-.357-1.393-1c-.16-.118-.336-.248-.528-.387l-7.646,7.726a2.293,2.293,0,0,0,1.579.6Z" transform="translate(-16.107 -310.639)"/>
      <path id="Path_5" data-name="Path 5" class="cls-1" d="M1.537,199.879A8.066,8.066,0,0,1,0,198.555v11.752L6.808,203.5Q4.765,202.073,1.537,199.879Z" transform="translate(0 -191.854)"/>
      <path id="Path_6" data-name="Path 6" class="cls-1" d="M418.593,199.879q-3.108,2.1-5.284,3.623l6.805,6.805V198.555A8.4,8.4,0,0,1,418.593,199.879Z" transform="translate(-393.114 -191.854)"/>
      <path id="Path_7" data-name="Path 7" class="cls-1" d="M24.595,59.013H2.417A2.143,2.143,0,0,0,.631,59.8a3.089,3.089,0,0,0-.625,1.978,3.575,3.575,0,0,0,.829,2.077A7.51,7.51,0,0,0,2.6,65.615q.512.365,3.089,2.168c.927.649,1.734,1.214,2.427,1.7.591.416,1.1.775,1.521,1.074l.225.162.415.3q.49.358.814.578t.784.494a4.551,4.551,0,0,0,.866.411,2.377,2.377,0,0,0,.753.137h.03a2.378,2.378,0,0,0,.753-.137,4.541,4.541,0,0,0,.866-.411q.459-.274.784-.494t.814-.578l.415-.3.225-.162L18.9,69.49l5.527-3.875a7.2,7.2,0,0,0,1.838-1.871,4.052,4.052,0,0,0,.738-2.3,2.345,2.345,0,0,0-.716-1.719A2.319,2.319,0,0,0,24.595,59.013Z" transform="translate(-0.006 -59.013)"/>
    </g>
  </g>
</svg>
